<?xml version="1.0" encoding="UTF-8"?>
<svg id="Layer_1" data-name="Layer 1" xmlns="http://www.w3.org/2000/svg" xmlns:xlink="http://www.w3.org/1999/xlink" viewBox="0 0 3820 2140">
  <defs>
    <style>
      .cls-1 {
        fill: url(#linear-gradient-2);
      }

      .cls-2 {
        fill: #bf2034;
      }

      .cls-3 {
        letter-spacing: -.05em;
      }

      .cls-4 {
        fill: #212f64;
        font-family: GilganRegular, Gilgan;
        font-size: 584.52px;
      }

      .cls-5 {
        fill: url(#linear-gradient-3);
      }

      .cls-6 {
        fill: url(#linear-gradient);
      }
    </style>
    <linearGradient id="linear-gradient" x1="1881.46" y1="979.05" x2="2126.41" y2="979.05" gradientUnits="userSpaceOnUse">
      <stop offset="0" stop-color="#212f64"/>
      <stop offset=".16" stop-color="#462b58"/>
      <stop offset=".56" stop-color="#9c233e"/>
      <stop offset=".74" stop-color="#bf2034"/>
      <stop offset=".97" stop-color="#bf2034"/>
      <stop offset="1" stop-color="#bf2034"/>
    </linearGradient>
    <linearGradient id="linear-gradient-2" x1="1766.06" y1="635.77" x2="2238.14" y2="635.77" gradientUnits="userSpaceOnUse">
      <stop offset="0" stop-color="#212f64"/>
      <stop offset=".54" stop-color="#b02138"/>
      <stop offset=".59" stop-color="#bf2034"/>
      <stop offset="1" stop-color="#bf2034"/>
    </linearGradient>
    <linearGradient id="linear-gradient-3" x1="1654.53" y1="1084.82" x2="2468.71" y2="1043.92" gradientUnits="userSpaceOnUse">
      <stop offset="0" stop-color="#212f64"/>
      <stop offset=".09" stop-color="#2e2d5f"/>
      <stop offset=".25" stop-color="#532a54"/>
      <stop offset=".46" stop-color="#8e2442"/>
      <stop offset=".63" stop-color="#bf2034"/>
      <stop offset="1" stop-color="#bf2034"/>
    </linearGradient>
  </defs>
  <g>
    <path class="cls-2" d="m1654.99,1412.62c-74.1,0-126.38,62.04-126.38,150.5s52.27,150.5,126.38,150.5c54.57,0,101.68-32.17,120.63-85.02l52.27,35.61c-31.02,67.21-94.78,109.14-172.91,109.14-113.74,0-194.16-86.74-194.16-210.25s80.42-210.25,194.16-210.25c72.38,0,130.4,35.04,163.72,91.91l-52.27,34.47c-22.4-39.06-63.19-66.64-111.44-66.64h0Z"/>
    <path class="cls-2" d="m2105.93,1516.02v-39.06h65.49v287.22h-65.49v-37.91c-23.55,30.44-58.02,47.1-97.08,47.1-81.57,0-147.06-67.21-147.06-152.23s65.49-153.38,147.06-153.38c39.06,0,73.53,17.23,97.08,48.25Zm-89.04,198.76c52.27,0,89.04-37.91,89.04-93.64s-36.76-94.78-89.04-94.78-89.61,38.49-89.61,94.78,36.76,93.64,89.61,93.64Z"/>
    <path class="cls-2" d="m2306.4,1362.07v402.11h-65.49v-402.11h65.49Z"/>
    <path class="cls-2" d="m2441.38,1476.95v287.22h-65.49v-287.22h65.49Z"/>
    <path class="cls-2" d="m2820.51,1621.14c0,85.02-65.49,152.23-147.06,152.23-39.06,0-73.53-16.66-97.08-47.1v37.91h-65.49v-402.11h65.49v153.95c23.55-31.02,58.02-48.25,97.08-48.25,81.57,0,147.06,67.21,147.06,153.38Zm-155.1,93.63c52.85,0,89.61-37.91,89.61-93.63s-36.76-94.78-89.61-94.78-89.04,39.06-89.04,94.78,36.76,93.63,89.04,93.63Z"/>
    <path class="cls-2" d="m3017.53,1467.76c86.74,0,154.52,67.21,154.52,152.23,0,4.02,0,7.47-.57,11.49h-242.99c4.6,49.98,39.64,83.29,89.04,83.29,37.34,0,66.64-19.53,80.42-50.55l52.27,36.19c-27,44.23-75.83,72.95-132.69,72.95-86.74,0-155.1-67.21-155.1-153.38s68.36-152.23,155.1-152.23h0Zm81.57,112.02c-13.21-32.74-43.08-53.42-81.57-53.42s-68.93,20.68-82.15,53.42h163.72Z"/>
    <path class="cls-2" d="m3290.38,1476.95v32.74c21.25-27,49.98-41.93,78.13-41.93,31.59,0,57.44,17.81,68.36,30.45l-36.76,50.55c-8.62-9.77-22.98-22.4-45.96-22.4-32.74,0-63.76,28.15-63.76,83.87v153.95h-65.49v-287.22h65.48Z"/>
  </g>
  <circle class="cls-6" cx="2003.94" cy="979.05" r="122.47"/>
  <polygon class="cls-1" points="2238.14 710.46 2146.04 797.57 1998.92 652.7 1854.05 797.57 1766.06 709.59 1910.93 564.72 2001.66 473.98 2089.64 561.96 2238.14 710.46"/>
  <path class="cls-5" d="m2322.1,806.01c22.52,50.58,33.94,104.79,33.94,161.12,0,100.16-36.57,194.51-102.98,265.65-32.61,34.93-70.67,62.4-113.13,81.64-44.25,20.05-91.26,30.22-139.73,30.22s-95.48-10.17-139.73-30.22c-42.46-19.24-80.52-46.71-113.13-81.64-66.41-71.14-102.98-165.48-102.98-265.65,0-56.32,11.42-110.53,33.94-161.12l95.05,42.32c-16.55,37.18-24.95,77.15-24.95,118.8,0,150.78,112.95,273.46,251.79,273.46s251.79-122.67,251.79-273.46c0-41.65-8.39-81.62-24.95-118.8l95.05-42.32Z"/>
  <path class="cls-2" d="m2408.64,1456.97c-32.84,0-59.56-26.72-59.56-59.56s26.72-59.56,59.56-59.56,59.56,26.72,59.56,59.56-26.72,59.56-59.56,59.56Zm0-103.38c-24.16,0-43.82,19.66-43.82,43.82s19.66,43.82,43.82,43.82,43.82-19.66,43.82-43.82-19.66-43.82-43.82-43.82Z"/>
  <g>
    <circle class="cls-2" cx="2408.64" cy="1397.41" r="21.41"/>
    <path class="cls-2" d="m2408.64,1423.56c-14.42,0-26.15-11.73-26.15-26.15s11.73-26.15,26.15-26.15,26.15,11.73,26.15,26.15-11.73,26.15-26.15,26.15Zm0-42.83c-9.19,0-16.67,7.48-16.67,16.67s7.48,16.67,16.67,16.67,16.67-7.48,16.67-16.67-7.48-16.67-16.67-16.67Z"/>
  </g>
  <text class="cls-4" transform="translate(581.12 1764.19)"><tspan class="cls-3" x="0" y="0">X</tspan><tspan x="371.18" y="0">O</tspan></text>
</svg>