<?xml version="1.0" encoding="UTF-8"?>
<svg id="Layer_1" data-name="Layer 1" xmlns="http://www.w3.org/2000/svg" xmlns:xlink="http://www.w3.org/1999/xlink" viewBox="0 0 3820 2140">
  <defs>
    <style>
      .cls-1 {
        fill: url(#linear-gradient-2);
      }

      .cls-2 {
        fill: #bf2034;
      }

      .cls-3 {
        letter-spacing: -.05em;
      }

      .cls-4 {
        fill: url(#linear-gradient-3);
      }

      .cls-5 {
        fill: #212f64;
        font-family: GilganRegular, Gilgan;
        font-size: 462.11px;
      }

      .cls-6 {
        fill: url(#linear-gradient);
      }
    </style>
    <linearGradient id="linear-gradient" x1="621.34" y1="1215.3" x2="814.99" y2="1215.3" gradientUnits="userSpaceOnUse">
      <stop offset="0" stop-color="#212f64"/>
      <stop offset=".16" stop-color="#462b58"/>
      <stop offset=".56" stop-color="#9c233e"/>
      <stop offset=".74" stop-color="#bf2034"/>
      <stop offset=".97" stop-color="#bf2034"/>
      <stop offset="1" stop-color="#bf2034"/>
    </linearGradient>
    <linearGradient id="linear-gradient-2" x1="530.11" y1="943.91" x2="903.33" y2="943.91" gradientUnits="userSpaceOnUse">
      <stop offset="0" stop-color="#212f64"/>
      <stop offset=".54" stop-color="#b02138"/>
      <stop offset=".59" stop-color="#bf2034"/>
      <stop offset="1" stop-color="#bf2034"/>
    </linearGradient>
    <linearGradient id="linear-gradient-3" x1="441.93" y1="1298.92" x2="1085.61" y2="1266.59" gradientUnits="userSpaceOnUse">
      <stop offset="0" stop-color="#212f64"/>
      <stop offset=".09" stop-color="#2e2d5f"/>
      <stop offset=".25" stop-color="#532a54"/>
      <stop offset=".46" stop-color="#8e2442"/>
      <stop offset=".63" stop-color="#bf2034"/>
      <stop offset="1" stop-color="#bf2034"/>
    </linearGradient>
  </defs>
  <g>
    <path class="cls-2" d="m1870.06,1135.53c-58.58,0-99.91,49.05-99.91,118.99s41.33,118.99,99.91,118.99c43.14,0,80.38-25.43,95.37-67.21l41.33,28.16c-24.52,53.13-74.93,86.29-136.7,86.29-89.92,0-153.5-68.58-153.5-166.22s63.58-166.22,153.5-166.22c57.22,0,103.09,27.7,129.43,72.66l-41.33,27.25c-17.71-30.88-49.96-52.68-88.1-52.68h0Z"/>
    <path class="cls-2" d="m2226.55,1217.28v-30.88h51.77v227.07h-51.77v-29.97c-18.62,24.07-45.87,37.24-76.75,37.24-64.49,0-116.26-53.14-116.26-120.35s51.77-121.26,116.26-121.26c30.88,0,58.13,13.63,76.75,38.15Zm-70.39,157.13c41.33,0,70.39-29.97,70.39-74.03s-29.07-74.93-70.39-74.93-70.85,30.43-70.85,74.93,29.07,74.03,70.85,74.03Z"/>
    <path class="cls-2" d="m2385.04,1095.57v317.9h-51.77v-317.9h51.77Z"/>
    <path class="cls-2" d="m2491.76,1186.4v227.07h-51.77v-227.07h51.77Z"/>
    <path class="cls-2" d="m2791.49,1300.39c0,67.21-51.77,120.35-116.26,120.35-30.88,0-58.13-13.17-76.75-37.24v29.97h-51.77v-317.9h51.77v121.71c18.62-24.52,45.87-38.15,76.75-38.15,64.49,0,116.26,53.13,116.26,121.26Zm-122.62,74.02c41.78,0,70.85-29.97,70.85-74.02s-29.07-74.93-70.85-74.93-70.39,30.88-70.39,74.93,29.07,74.02,70.39,74.02Z"/>
    <path class="cls-2" d="m2947.25,1179.13c68.58,0,122.16,53.14,122.16,120.35,0,3.18,0,5.9-.45,9.08h-192.1c3.63,39.51,31.34,65.85,70.39,65.85,29.52,0,52.68-15.44,63.58-39.97l41.33,28.61c-21.34,34.97-59.95,57.68-104.91,57.68-68.58,0-122.62-53.13-122.62-121.26s54.04-120.35,122.62-120.35h0Zm64.49,88.56c-10.45-25.89-34.06-42.24-64.49-42.24s-54.5,16.35-64.94,42.24h129.43Z"/>
    <path class="cls-2" d="m3162.96,1186.4v25.89c16.8-21.34,39.51-33.15,61.76-33.15,24.98,0,45.41,14.08,54.04,24.07l-29.07,39.96c-6.81-7.72-18.17-17.71-36.33-17.71-25.89,0-50.41,22.25-50.41,66.31v121.71h-51.77v-227.07h51.77Z"/>
  </g>
  <circle class="cls-6" cx="718.16" cy="1215.3" r="96.82"/>
  <polygon class="cls-1" points="903.33 1002.96 830.51 1071.83 714.2 957.3 599.67 1071.83 530.11 1002.27 644.64 887.74 716.37 816 785.93 885.56 903.33 1002.96"/>
  <path class="cls-4" d="m969.7,1078.5c17.81,39.99,26.83,82.84,26.83,127.38,0,79.19-28.91,153.77-81.41,210.02-25.78,27.62-55.87,49.33-89.44,64.54-34.98,15.85-72.15,23.89-110.47,23.89s-75.49-8.04-110.47-23.89c-33.57-15.21-63.66-36.93-89.44-64.54-52.5-56.24-81.41-130.83-81.41-210.02,0-44.53,9.03-87.38,26.83-127.38l75.15,33.46c-13.09,29.39-19.72,60.99-19.72,93.92,0,119.21,89.3,216.19,199.06,216.19s199.06-96.98,199.06-216.19c0-32.93-6.64-64.53-19.72-93.92l75.14-33.46Z"/>
  <path class="cls-2" d="m2465.87,1170.6c-25.96,0-47.09-21.12-47.09-47.09s21.12-47.09,47.09-47.09,47.09,21.12,47.09,47.09-21.12,47.09-47.09,47.09Zm0-81.73c-19.1,0-34.64,15.54-34.64,34.64s15.54,34.64,34.64,34.64,34.64-15.54,34.64-34.64-15.54-34.64-34.64-34.64Z"/>
  <g>
    <circle class="cls-2" cx="2465.87" cy="1123.51" r="16.93"/>
    <path class="cls-2" d="m2465.87,1144.19c-11.4,0-20.68-9.28-20.68-20.68s9.28-20.68,20.68-20.68,20.68,9.28,20.68,20.68-9.28,20.68-20.68,20.68Zm0-33.86c-7.27,0-13.18,5.91-13.18,13.18s5.91,13.18,13.18,13.18,13.18-5.91,13.18-13.18-5.91-13.18-13.18-13.18Z"/>
  </g>
  <text class="cls-5" transform="translate(1021.07 1413.48)"><tspan class="cls-3" x="0" y="0">X</tspan><tspan x="293.45" y="0">O</tspan></text>
</svg>